<?xml version="1.0" encoding="utf-8"?>
<!-- Generator: Adobe Illustrator 27.4.1, SVG Export Plug-In . SVG Version: 6.00 Build 0)  -->
<svg version="1.1" id="Layer_1" xmlns="http://www.w3.org/2000/svg" xmlns:xlink="http://www.w3.org/1999/xlink" x="0px" y="0px"
	 viewBox="0 0 575 574" style="enable-background:new 0 0 575 574;" xml:space="preserve">
<style type="text/css">
	.st0{fill:none;stroke:#FFFFFF;stroke-width:66.6667;stroke-linecap:round;stroke-linejoin:round;stroke-miterlimit:133.3333;}
</style>
<g id="Interface__x2F__External_x5F_Link">
	<path id="Vector" class="st0" d="M203.7,69.3h-60c-37.3,0-56,0-70.3,7.3C60.8,83,50.7,93.2,44.3,105.7C37,120,37,138.7,37,176
		v253.3c0,37.3,0,56,7.3,70.3c6.4,12.5,16.6,22.8,29.1,29.1c14.2,7.3,32.9,7.3,70.2,7.3h253.5c37.3,0,55.9,0,70.1-7.3
		c12.5-6.4,22.8-16.6,29.2-29.2c7.3-14.2,7.3-32.9,7.3-70.2v-60.1 M537,202.7V36 M537,36H370.3 M537,36L303.7,269.3"/>
</g>
</svg>
