<?xml version="1.0" encoding="utf-8"?>
<!-- Generator: Adobe Illustrator 27.4.1, SVG Export Plug-In . SVG Version: 6.00 Build 0)  -->
<svg version="1.1" id="Layer_1" xmlns="http://www.w3.org/2000/svg" xmlns:xlink="http://www.w3.org/1999/xlink" x="0px" y="0px"
	 viewBox="0 0 700 800" style="enable-background:new 0 0 700 800;" xml:space="preserve">
<style type="text/css">
	.st0{fill-rule:evenodd;clip-rule:evenodd;fill:#FFFFFF;}
</style>
<g>
	<path class="st0" d="M650,591c-21.4-27-56.2-66-85.9-69.7c-18.1-2.2-38.9,12.8-59.4,26.9c-4,2-34.9,20.4-38.6,21.5
		c-19.8,5.6-62.1,7.3-87.6-16c-24.6-22.5-63.5-64.1-94.9-102.3c-30-39.3-61.5-86.6-77.6-115.6c-16.8-30-4.7-69.8,5.7-87.3
		c1.9-3.1,24.9-26.8,30.1-32.3l0.7,0.9c19.1-16,39-32.2,41.2-49.8c3.7-29.3-26.2-72-47.7-98.9c-21.4-27.1-54.5-74.4-99.7-67.7
		c-17,2.5-31.7,8.4-46.1,17l-0.4-0.5c-0.3,0.2-1.7,1.3-2.4,1.9c-0.4,0.3-0.8,0.4-1.2,0.7l0.1,0.2c-8.3,6.4-32,24.1-34.7,26.5
		c-29.3,26-73.4,87.4-39.3,197.8c25.3,82,79.3,178.3,152.8,275.7l-0.4,0.3c3.6,4.7,7.3,9,11,13.5c3.5,4.6,6.9,9.2,10.5,13.8l0.5-0.3
		c78,93.9,159.8,169.1,234.4,213.3c100.5,59.6,172,32.8,205,11.4c3.1-2,26.7-20.4,34.7-26.4l0.2,0.2c0.3-0.3,0.5-0.7,0.9-1
		c0.6-0.5,1.9-1.4,2.1-1.7l-0.3-0.4c12.1-11.7,21.8-24.2,28.5-40C709.9,661.2,671.4,618,650,591L650,591z"/>
</g>
</svg>
