<svg width="39" height="36" viewBox="0 0 39 36" fill="none" xmlns="http://www.w3.org/2000/svg">
<path fill-rule="evenodd" clip-rule="evenodd" d="M12.1574 0H26.4695C33.0554 0 38.3962 5.03775 38.3962 11.25V24.75C38.3962 30.9622 33.0554 36 26.4695 36H12.1574C5.5715 36 0.230713 30.9622 0.230713 24.75V11.25C0.230713 5.03775 5.5715 0 12.1574 0ZM26.4696 32.6246C31.0733 32.6246 34.8183 29.0922 34.8183 24.7497V11.2497C34.8183 6.90724 31.0733 3.37476 26.4696 3.37476H12.1575C7.55379 3.37476 3.80879 6.90724 3.80879 11.2497V24.7497C3.80879 29.0922 7.55379 32.6246 12.1575 32.6246H26.4696Z" fill="white"/>
<path fill-rule="evenodd" clip-rule="evenodd" d="M9.77173 18C9.77173 13.0297 14.0439 9 19.3131 9C24.5824 9 28.8545 13.0297 28.8545 18C28.8545 22.9702 24.5824 26.9999 19.3131 26.9999C14.0439 26.9999 9.77173 22.9702 9.77173 18ZM13.3498 17.9997C13.3498 21.1002 16.0262 23.6247 19.3132 23.6247C22.6002 23.6247 25.2766 21.1002 25.2766 17.9997C25.2766 14.8969 22.6002 12.3746 19.3132 12.3746C16.0262 12.3746 13.3498 14.8969 13.3498 17.9997Z" fill="white"/>
<ellipse cx="29.5705" cy="8.3263" rx="1.2714" ry="1.20032" fill="white"/>
</svg>
