<svg width="39" height="30" viewBox="0 0 39 30" fill="none" xmlns="http://www.w3.org/2000/svg">
<path d="M38.8393 3.73581C37.4201 4.32306 35.9078 4.71231 34.331 4.9013C35.9531 3.98781 37.1911 2.55231 37.7731 0.822069C36.2608 1.67257 34.591 2.27331 32.8116 2.60856C31.3756 1.16632 29.329 0.273071 27.0963 0.273071C22.7645 0.273071 19.2771 3.58956 19.2771 7.65529C19.2771 8.24029 19.3296 8.80279 19.4584 9.33829C12.9536 9.03904 7.19775 6.0983 3.3311 1.61857C2.65605 2.72331 2.26008 3.98781 2.26008 5.34905C2.26008 7.90504 3.65551 10.1708 5.73553 11.4825C4.47845 11.46 3.24523 11.1158 2.20045 10.5735C2.20045 10.596 2.20045 10.6253 2.20045 10.6545C2.20045 14.241 4.91259 17.22 8.46914 17.9063C7.83225 18.0705 7.13811 18.1493 6.41774 18.1493C5.91682 18.1493 5.41112 18.1223 4.93644 18.0233C5.95021 20.946 8.82694 23.0947 12.2475 23.1645C9.58548 25.1287 6.20544 26.3122 2.54632 26.3122C1.90467 26.3122 1.28925 26.2852 0.673828 26.211C4.13973 28.3192 8.2473 29.523 12.6769 29.523C27.0748 29.523 34.9465 18.273 34.9465 8.52154C34.9465 8.19529 34.9345 7.88029 34.9178 7.56754C36.4707 6.52805 37.7755 5.2298 38.8393 3.73581Z" fill="white"/>
</svg>
