<?xml version="1.0" encoding="utf-8"?>
<!-- Generator: Adobe Illustrator 27.4.1, SVG Export Plug-In . SVG Version: 6.00 Build 0)  -->
<svg version="1.1" id="Layer_1" xmlns="http://www.w3.org/2000/svg" xmlns:xlink="http://www.w3.org/1999/xlink" x="0px" y="0px"
	 viewBox="0 0 800 783.5" style="enable-background:new 0 0 800 783.5;" xml:space="preserve">
<style type="text/css">
	.st0{fill:#FFFFFF;}
	.st1{fill:#F68A0A;}
</style>
<circle class="st0" cx="399.1" cy="392.6" r="369.4"/>
<g>
	<g>
		<g>
			<path class="st1" d="M400,0.3C179.5,0.3,0,175.9,0,391.9s179.5,391.7,400,391.7s400-175.7,400-391.7S620.5,0.3,400,0.3z
				 M400,750.3C197.8,750.3,33.3,589.5,33.3,392S197.8,33.6,400,33.6s366.7,160.7,366.7,358.3S602.2,750.3,400,750.3z"/>
			<path class="st1" d="M413,223.1c-6.3-7.2-17.2-7.8-24.3-1.5c-0.5,0.5-1,1-1.5,1.5L170.5,489.8c-5.8,7.2-4.7,17.7,2.5,23.5
				s17.7,4.7,23.5-2.5L400,260.1l203.7,250.7c5.8,7.2,16.3,8.2,23.5,2.5c7.2-5.8,8.2-16.3,2.5-23.5L413,223.1z"/>
		</g>
	</g>
</g>
</svg>
